<svg width="32" height="32" viewBox="0 0 32 32" fill="none" xmlns="http://www.w3.org/2000/svg">
<path d="M21 11.6667L20.5869 18.3501C20.4813 20.0576 20.4285 20.9114 20.0005 21.5253C19.7889 21.8288 19.5165 22.0849 19.2005 22.2774C18.5614 22.6667 17.706 22.6667 15.9951 22.6667C14.2821 22.6667 13.4255 22.6667 12.786 22.2766C12.4699 22.0838 12.1973 21.8272 11.9858 21.5232C11.5579 20.9084 11.5063 20.0534 11.4031 18.3435L11 11.6667" stroke="#6B6671" stroke-linecap="round"/>
<path d="M10 11.6666H22M18.7038 11.6666L18.2487 10.7278C17.9464 10.1042 17.7952 9.79233 17.5345 9.59785C17.4767 9.55471 17.4154 9.51634 17.3513 9.48311C17.0626 9.33331 16.7161 9.33331 16.023 9.33331C15.3125 9.33331 14.9573 9.33331 14.6638 9.48939C14.5987 9.52399 14.5367 9.56391 14.4782 9.60876C14.2144 9.81111 14.0671 10.1343 13.7724 10.7808L13.3686 11.6666" stroke="#6B6671" stroke-linecap="round"/>
<path d="M14.3334 19V15" stroke="#6B6671" stroke-linecap="round"/>
<path d="M17.6666 19V15" stroke="#6B6671" stroke-linecap="round"/>
</svg>
